<svg width="125" height="35" viewBox="0 0 125 35" fill="none" xmlns="http://www.w3.org/2000/svg">
<circle cx="14.5" cy="17" r="14" fill="#0E1125"/>
<path d="M22.2942 12.5L14.5 26L6.70577 12.5L22.2942 12.5Z" stroke="white"/>
<path d="M7.5 13L14.5 17.5L22 13" stroke="white" stroke-linecap="round"/>
<path d="M14.5 17.5V25.5" stroke="white" stroke-linecap="round"/>
<g filter="url(#filter0_d_1_65868)">
<path d="M45.6952 24V18.6867H40.2952V24H37.7145V11.6169H40.2952V16.5398H45.6952V11.6169H48.2759V24H45.6952ZM52.9384 24.1735C52.0131 24.1735 51.2902 23.9277 50.7698 23.4361C50.2637 22.9301 50.0107 22.2217 50.0107 21.3108C50.0107 20.3277 50.3288 19.5831 50.9649 19.0771C51.6155 18.5566 52.5481 18.2892 53.7625 18.2747L55.8228 18.2313V17.7542C55.8228 17.1325 55.7143 16.6699 55.4975 16.3663C55.2806 16.0627 54.9264 15.9108 54.4348 15.9108C53.9722 15.9108 53.6324 16.0193 53.4155 16.2361C53.2131 16.4386 53.083 16.7783 53.0252 17.2554L50.4445 17.1253C50.6035 16.2 51.0228 15.4988 51.7023 15.0217C52.3963 14.5446 53.3432 14.306 54.5432 14.306C55.7432 14.306 56.6685 14.6024 57.3192 15.1952C57.9698 15.788 58.2951 16.6337 58.2951 17.7325V21.1807C58.2951 21.7157 58.3529 22.0843 58.4685 22.2867C58.5842 22.4892 58.7866 22.5904 59.0758 22.5904C59.2637 22.5904 59.4445 22.5759 59.6179 22.547V23.8699C59.4734 23.8988 59.3432 23.9349 59.2276 23.9783C59.1119 24.0072 58.989 24.0289 58.8589 24.0434C58.7432 24.0578 58.6204 24.0723 58.4902 24.0867C58.3601 24.1012 58.2083 24.1084 58.0348 24.1084C57.4131 24.1084 56.9505 23.9566 56.6469 23.653C56.3577 23.3494 56.1842 22.9012 56.1264 22.3084H56.083C55.3746 23.5518 54.3264 24.1735 52.9384 24.1735ZM55.8228 19.5976L54.5432 19.6193C53.9649 19.6482 53.5529 19.7133 53.3071 19.8145C53.0758 19.9157 52.8951 20.0747 52.7649 20.2916C52.6493 20.494 52.5914 20.7687 52.5914 21.1157C52.5914 21.5639 52.6926 21.9036 52.8951 22.1349C53.1119 22.3518 53.3938 22.4602 53.7408 22.4602C54.1312 22.4602 54.4854 22.3518 54.8035 22.1349C55.1216 21.9181 55.3673 21.6289 55.5408 21.2675C55.7288 20.8916 55.8228 20.494 55.8228 20.0747V19.5976ZM60.75 24V10.9663H63.2223V24H60.75ZM67.9326 24.1735C67.0073 24.1735 66.2844 23.9277 65.7639 23.4361C65.2579 22.9301 65.0049 22.2217 65.0049 21.3108C65.0049 20.3277 65.3229 19.5831 65.9591 19.0771C66.6097 18.5566 67.5422 18.2892 68.7567 18.2747L70.8169 18.2313V17.7542C70.8169 17.1325 70.7085 16.6699 70.4916 16.3663C70.2747 16.0627 69.9205 15.9108 69.429 15.9108C68.9663 15.9108 68.6265 16.0193 68.4097 16.2361C68.2073 16.4386 68.0771 16.7783 68.0193 17.2554L65.4386 17.1253C65.5976 16.2 66.0169 15.4988 66.6964 15.0217C67.3904 14.5446 68.3374 14.306 69.5374 14.306C70.7374 14.306 71.6627 14.6024 72.3133 15.1952C72.9639 15.788 73.2892 16.6337 73.2892 17.7325V21.1807C73.2892 21.7157 73.347 22.0843 73.4627 22.2867C73.5784 22.4892 73.7808 22.5904 74.0699 22.5904C74.2579 22.5904 74.4386 22.5759 74.6121 22.547V23.8699C74.4675 23.8988 74.3374 23.9349 74.2217 23.9783C74.1061 24.0072 73.9832 24.0289 73.853 24.0434C73.7374 24.0578 73.6145 24.0723 73.4844 24.0867C73.3543 24.1012 73.2024 24.1084 73.029 24.1084C72.4073 24.1084 71.9446 23.9566 71.641 23.653C71.3518 23.3494 71.1784 22.9012 71.1205 22.3084H71.0771C70.3687 23.5518 69.3205 24.1735 67.9326 24.1735ZM70.8169 19.5976L69.5374 19.6193C68.9591 19.6482 68.547 19.7133 68.3012 19.8145C68.0699 19.9157 67.8892 20.0747 67.7591 20.2916C67.6434 20.494 67.5856 20.7687 67.5856 21.1157C67.5856 21.5639 67.6868 21.9036 67.8892 22.1349C68.1061 22.3518 68.388 22.4602 68.735 22.4602C69.1253 22.4602 69.4796 22.3518 69.7976 22.1349C70.1157 21.9181 70.3615 21.6289 70.535 21.2675C70.7229 20.8916 70.8169 20.494 70.8169 20.0747V19.5976ZM75.7442 24V10.9663H78.2164V24H75.7442ZM79.305 26.1904V25.5181H89.6496V26.1904H79.305ZM90.6949 24V11.6169H93.2756V22.0048H99.9118V24H90.6949ZM103.897 24.1735C102.972 24.1735 102.249 23.9277 101.729 23.4361C101.223 22.9301 100.97 22.2217 100.97 21.3108C100.97 20.3277 101.288 19.5831 101.924 19.0771C102.575 18.5566 103.507 18.2892 104.722 18.2747L106.782 18.2313V17.7542C106.782 17.1325 106.673 16.6699 106.456 16.3663C106.24 16.0627 105.885 15.9108 105.394 15.9108C104.931 15.9108 104.591 16.0193 104.375 16.2361C104.172 16.4386 104.042 16.7783 103.984 17.2554L101.403 17.1253C101.562 16.2 101.982 15.4988 102.661 15.0217C103.355 14.5446 104.302 14.306 105.502 14.306C106.702 14.306 107.628 14.6024 108.278 15.1952C108.929 15.788 109.254 16.6337 109.254 17.7325V21.1807C109.254 21.7157 109.312 22.0843 109.428 22.2867C109.543 22.4892 109.746 22.5904 110.035 22.5904C110.223 22.5904 110.403 22.5759 110.577 22.547V23.8699C110.432 23.8988 110.302 23.9349 110.187 23.9783C110.071 24.0072 109.948 24.0289 109.818 24.0434C109.702 24.0578 109.579 24.0723 109.449 24.0867C109.319 24.1012 109.167 24.1084 108.994 24.1084C108.372 24.1084 107.909 23.9566 107.606 23.653C107.317 23.3494 107.143 22.9012 107.085 22.3084H107.042C106.334 23.5518 105.285 24.1735 103.897 24.1735ZM106.782 19.5976L105.502 19.6193C104.924 19.6482 104.512 19.7133 104.266 19.8145C104.035 19.9157 103.854 20.0747 103.724 20.2916C103.608 20.494 103.55 20.7687 103.55 21.1157C103.55 21.5639 103.652 21.9036 103.854 22.1349C104.071 22.3518 104.353 22.4602 104.7 22.4602C105.09 22.4602 105.444 22.3518 105.762 22.1349C106.081 21.9181 106.326 21.6289 106.5 21.2675C106.688 20.8916 106.782 20.494 106.782 20.0747V19.5976ZM120.709 19.2072C120.709 20.7831 120.391 22.0048 119.755 22.8723C119.133 23.7398 118.237 24.1735 117.066 24.1735C116.386 24.1735 115.801 24.0289 115.309 23.7398C114.817 23.4506 114.442 23.0241 114.181 22.4602H114.16C114.16 22.6627 114.145 22.9446 114.116 23.306C114.087 23.6675 114.058 23.8988 114.029 24H111.644C111.687 23.4506 111.709 22.7277 111.709 21.8313V10.9663H114.181V14.588L114.138 16.1494H114.181C114.745 14.9349 115.757 14.3205 117.217 14.306C118.345 14.306 119.205 14.7325 119.798 15.5855C120.405 16.4386 120.709 17.6458 120.709 19.2072ZM118.128 19.2072C118.128 18.1229 117.969 17.3205 117.651 16.8C117.333 16.2795 116.849 16.0193 116.198 16.0193C115.533 16.0193 115.02 16.3012 114.658 16.8651C114.311 17.4289 114.138 18.2386 114.138 19.294C114.138 20.306 114.311 21.094 114.658 21.6578C115.005 22.2072 115.511 22.4819 116.176 22.4819C117.478 22.4819 118.128 21.3904 118.128 19.2072Z" fill="#0E1125"/>
</g>
<defs>
<filter id="filter0_d_1_65868" x="33.7148" y="10.9663" width="90.9961" height="23.2241" filterUnits="userSpaceOnUse" color-interpolation-filters="sRGB">
<feFlood flood-opacity="0" result="BackgroundImageFix"/>
<feColorMatrix in="SourceAlpha" type="matrix" values="0 0 0 0 0 0 0 0 0 0 0 0 0 0 0 0 0 0 127 0" result="hardAlpha"/>
<feOffset dy="4"/>
<feGaussianBlur stdDeviation="2"/>
<feComposite in2="hardAlpha" operator="out"/>
<feColorMatrix type="matrix" values="0 0 0 0 0 0 0 0 0 0 0 0 0 0 0 0 0 0 0.25 0"/>
<feBlend mode="normal" in2="BackgroundImageFix" result="effect1_dropShadow_1_65868"/>
<feBlend mode="normal" in="SourceGraphic" in2="effect1_dropShadow_1_65868" result="shape"/>
</filter>
</defs>
</svg>
