<svg width="103" height="30" viewBox="0 0 103 30" fill="none" xmlns="http://www.w3.org/2000/svg">
<circle cx="11.8017" cy="15.0005" r="11.8017" fill="white"/>
<path d="M18.3711 11.2072L11.8007 22.5873L5.23037 11.2072L18.3711 11.2072Z" stroke="#121212" stroke-width="0.842975"/>
<path d="M5.89844 11.6285L11.7993 15.4219L18.1216 11.6285" stroke="#121212" stroke-width="0.842975" stroke-linecap="round"/>
<path d="M11.8008 15.422V22.1658" stroke="#121212" stroke-width="0.842975" stroke-linecap="round"/>
<path d="M38.099 20.6699V16.191H33.5469V20.6699H31.3714V10.2312H33.5469V14.3811H38.099V10.2312H40.2745V20.6699H38.099ZM44.2048 20.8162C43.4248 20.8162 42.8155 20.609 42.3767 20.1946C41.9501 19.768 41.7369 19.1708 41.7369 18.403C41.7369 17.5743 42.005 16.9466 42.5412 16.52C43.0897 16.0813 43.8758 15.8558 44.8995 15.8436L46.6363 15.8071V15.4049C46.6363 14.8808 46.5449 14.4908 46.362 14.2349C46.1792 13.9789 45.8806 13.851 45.4663 13.851C45.0763 13.851 44.7898 13.9424 44.607 14.1252C44.4364 14.2958 44.3267 14.5822 44.278 14.9844L42.1025 14.8747C42.2365 14.0947 42.59 13.5036 43.1628 13.1014C43.7478 12.6992 44.5461 12.4981 45.5577 12.4981C46.5692 12.4981 47.3492 12.748 47.8977 13.2477C48.4461 13.7474 48.7203 14.4603 48.7203 15.3866V18.2933C48.7203 18.7443 48.7691 19.0551 48.8666 19.2257C48.9641 19.3963 49.1347 19.4816 49.3785 19.4816C49.5369 19.4816 49.6893 19.4694 49.8355 19.4451V20.5602C49.7136 20.5846 49.6039 20.6151 49.5064 20.6516C49.4089 20.676 49.3054 20.6943 49.1957 20.7065C49.0982 20.7187 48.9946 20.7309 48.8849 20.743C48.7752 20.7552 48.6472 20.7613 48.501 20.7613C47.9769 20.7613 47.5869 20.6334 47.331 20.3774C47.0872 20.1215 46.941 19.7437 46.8922 19.244H46.8556C46.2585 20.2921 45.3749 20.8162 44.2048 20.8162ZM46.6363 16.9588L45.5577 16.9771C45.0702 17.0015 44.7228 17.0563 44.5156 17.1416C44.3206 17.2269 44.1683 17.361 44.0586 17.5438C43.9611 17.7144 43.9123 17.946 43.9123 18.2385C43.9123 18.6163 43.9977 18.9027 44.1683 19.0977C44.3511 19.2805 44.5888 19.3719 44.8813 19.3719C45.2103 19.3719 45.5089 19.2805 45.777 19.0977C46.0452 18.9149 46.2524 18.6712 46.3986 18.3665C46.557 18.0496 46.6363 17.7144 46.6363 17.361V16.9588ZM50.7898 20.6699V9.68281H52.8739V20.6699H50.7898ZM56.8445 20.8162C56.0645 20.8162 55.4551 20.609 55.0164 20.1946C54.5898 19.768 54.3765 19.1708 54.3765 18.403C54.3765 17.5743 54.6447 16.9466 55.1809 16.52C55.7294 16.0813 56.5155 15.8558 57.5392 15.8436L59.276 15.8071V15.4049C59.276 14.8808 59.1845 14.4908 59.0017 14.2349C58.8189 13.9789 58.5203 13.851 58.1059 13.851C57.7159 13.851 57.4295 13.9424 57.2467 14.1252C57.0761 14.2958 56.9664 14.5822 56.9177 14.9844L54.7422 14.8747C54.8762 14.0947 55.2297 13.5036 55.8025 13.1014C56.3875 12.6992 57.1858 12.4981 58.1974 12.4981C59.2089 12.4981 59.9889 12.748 60.5374 13.2477C61.0858 13.7474 61.36 14.4603 61.36 15.3866V18.2933C61.36 18.7443 61.4088 19.0551 61.5063 19.2257C61.6038 19.3963 61.7744 19.4816 62.0182 19.4816C62.1766 19.4816 62.3289 19.4694 62.4752 19.4451V20.5602C62.3533 20.5846 62.2436 20.6151 62.1461 20.6516C62.0486 20.676 61.945 20.6943 61.8354 20.7065C61.7378 20.7187 61.6343 20.7309 61.5246 20.743C61.4149 20.7552 61.2869 20.7613 61.1407 20.7613C60.6166 20.7613 60.2266 20.6334 59.9706 20.3774C59.7269 20.1215 59.5806 19.7437 59.5319 19.244H59.4953C58.8981 20.2921 58.0145 20.8162 56.8445 20.8162ZM59.276 16.9588L58.1974 16.9771C57.7099 17.0015 57.3625 17.0563 57.1553 17.1416C56.9603 17.2269 56.808 17.361 56.6983 17.5438C56.6008 17.7144 56.552 17.946 56.552 18.2385C56.552 18.6163 56.6373 18.9027 56.808 19.0977C56.9908 19.2805 57.2284 19.3719 57.5209 19.3719C57.85 19.3719 58.1486 19.2805 58.4167 19.0977C58.6849 18.9149 58.892 18.6712 59.0383 18.3665C59.1967 18.0496 59.276 17.7144 59.276 17.361V16.9588ZM63.4295 20.6699V9.68281H65.5136V20.6699H63.4295ZM66.4312 22.5163V21.9496H75.1514V22.5163H66.4312ZM76.0326 20.6699V10.2312H78.2081V18.988H83.8022V20.6699H76.0326ZM87.162 20.8162C86.382 20.8162 85.7726 20.609 85.3339 20.1946C84.9073 19.768 84.694 19.1708 84.694 18.403C84.694 17.5743 84.9621 16.9466 85.4984 16.52C86.0468 16.0813 86.8329 15.8558 87.8567 15.8436L89.5934 15.8071V15.4049C89.5934 14.8808 89.502 14.4908 89.3192 14.2349C89.1364 13.9789 88.8378 13.851 88.4234 13.851C88.0334 13.851 87.747 13.9424 87.5642 14.1252C87.3936 14.2958 87.2839 14.5822 87.2351 14.9844L85.0596 14.8747C85.1937 14.0947 85.5471 13.5036 86.12 13.1014C86.705 12.6992 87.5033 12.4981 88.5148 12.4981C89.5264 12.4981 90.3064 12.748 90.8548 13.2477C91.4033 13.7474 91.6775 14.4603 91.6775 15.3866V18.2933C91.6775 18.7443 91.7263 19.0551 91.8238 19.2257C91.9213 19.3963 92.0919 19.4816 92.3356 19.4816C92.4941 19.4816 92.6464 19.4694 92.7927 19.4451V20.5602C92.6708 20.5846 92.5611 20.6151 92.4636 20.6516C92.3661 20.676 92.2625 20.6943 92.1528 20.7065C92.0553 20.7187 91.9517 20.7309 91.842 20.743C91.7323 20.7552 91.6044 20.7613 91.4581 20.7613C90.9341 20.7613 90.5441 20.6334 90.2881 20.3774C90.0444 20.1215 89.8981 19.7437 89.8494 19.244H89.8128C89.2156 20.2921 88.332 20.8162 87.162 20.8162ZM89.5934 16.9588L88.5148 16.9771C88.0273 17.0015 87.68 17.0563 87.4728 17.1416C87.2778 17.2269 87.1254 17.361 87.0158 17.5438C86.9182 17.7144 86.8695 17.946 86.8695 18.2385C86.8695 18.6163 86.9548 18.9027 87.1254 19.0977C87.3083 19.2805 87.5459 19.3719 87.8384 19.3719C88.1675 19.3719 88.4661 19.2805 88.7342 19.0977C89.0023 18.9149 89.2095 18.6712 89.3558 18.3665C89.5142 18.0496 89.5934 17.7144 89.5934 17.361V16.9588ZM101.334 16.6297C101.334 17.9582 101.066 18.988 100.529 19.7193C100.005 20.4505 99.2497 20.8162 98.2625 20.8162C97.6897 20.8162 97.1961 20.6943 96.7817 20.4505C96.3673 20.2068 96.0504 19.8473 95.8311 19.3719H95.8128C95.8128 19.5426 95.8006 19.7802 95.7762 20.0849C95.7518 20.3896 95.7275 20.5846 95.7031 20.6699H93.6921C93.7287 20.2068 93.747 19.5974 93.747 18.8418V9.68281H95.8311V12.7358L95.7945 14.0521H95.8311C96.3064 13.0283 97.1595 12.5103 98.3905 12.4981C99.3411 12.4981 100.066 12.8577 100.566 13.5767C101.078 14.2958 101.334 15.3135 101.334 16.6297ZM99.1583 16.6297C99.1583 15.7157 99.0242 15.0393 98.7561 14.6005C98.488 14.1617 98.0797 13.9424 97.5312 13.9424C96.9706 13.9424 96.5379 14.18 96.2333 14.6553C95.9407 15.1307 95.7945 15.8132 95.7945 16.7029C95.7945 17.556 95.9407 18.2202 96.2333 18.6955C96.5258 19.1587 96.9523 19.3902 97.5129 19.3902C98.6098 19.3902 99.1583 18.4701 99.1583 16.6297Z" fill="white"/>
</svg>
