<svg width="20" height="19" viewBox="0 0 20 19" fill="none" xmlns="http://www.w3.org/2000/svg">
<path d="M3.14932 9.62225C2.3593 8.24467 1.97784 7.11982 1.74783 5.97959C1.40765 4.29323 2.18614 2.64592 3.47578 1.59481C4.02084 1.15057 4.64566 1.30235 4.96797 1.88058L5.69562 3.18601C6.27238 4.22072 6.56075 4.73807 6.50355 5.28657C6.44636 5.83507 6.05744 6.2818 5.27961 7.17526L3.14932 9.62225ZM3.14932 9.62225C4.74839 12.4105 7.25783 14.9213 10.0493 16.5223M10.0493 16.5223C11.4269 17.3123 12.5517 17.6937 13.692 17.9237C15.3783 18.2639 17.0256 17.4854 18.0767 16.1958C18.521 15.6508 18.3692 15.0259 17.791 14.7036L16.4855 13.9759C15.4508 13.3992 14.9335 13.1108 14.385 13.168C13.8365 13.2252 13.3897 13.6141 12.4963 14.3919L10.0493 16.5223Z" stroke="white" stroke-width="1.5" stroke-linejoin="round"/>
</svg>
