<svg width="16" height="16" viewBox="0 0 16 16" fill="none" xmlns="http://www.w3.org/2000/svg">
<path d="M14.4508 7.9998C14.4508 11.562 11.563 14.4498 8.00078 14.4498C4.43854 14.4498 1.55078 11.562 1.55078 7.9998C1.55078 4.43757 4.43854 1.5498 8.00078 1.5498C11.563 1.5498 14.4508 4.43757 14.4508 7.9998ZM8.01604 4.82692C7.50972 4.48938 6.85873 4.45791 6.32222 4.74504C5.78571 5.03217 5.45078 5.59129 5.45078 6.19981V9.79981C5.45078 10.4083 5.78571 10.9674 6.32222 11.2546C6.85872 11.5417 7.50972 11.5102 8.01604 11.1727L10.716 9.37269C11.1751 9.06667 11.4508 8.55149 11.4508 7.99981C11.4508 7.44812 11.1751 6.93294 10.716 6.62692L8.01604 4.82692Z" fill="#12141D" stroke="#12141D" stroke-width="1.5"/>
</svg>
