<svg width="91" height="90" viewBox="0 0 91 90" fill="none" xmlns="http://www.w3.org/2000/svg">
<path d="M9.875 45C9.875 28.2062 9.875 19.8093 15.0922 14.5922C20.3093 9.375 28.7062 9.375 45.5 9.375C62.2938 9.375 70.6907 9.375 75.9078 14.5922C81.125 19.8093 81.125 28.2062 81.125 45C81.125 61.7938 81.125 70.1907 75.9078 75.4078C70.6907 80.625 62.2938 80.625 45.5 80.625C28.7062 80.625 20.3093 80.625 15.0922 75.4078C9.875 70.1907 9.875 61.7938 9.875 45Z" stroke="#0F1534" stroke-width="4" stroke-linejoin="round"/>
<path d="M38 37.5H41.75" stroke="#0F1534" stroke-width="4" stroke-linecap="round" stroke-linejoin="round"/>
<path d="M38 56.25H53" stroke="#0F1534" stroke-width="4" stroke-linecap="round" stroke-linejoin="round"/>
<path d="M56.5913 42.9834V39.408C56.5913 32.3855 56.5913 28.8743 54.8093 26.4128C51.4328 21.749 44.8736 22.5528 39.7957 22.5528C34.7178 22.5528 28.1586 21.749 24.782 26.4128C23 28.8743 23 32.3855 23 39.408V48.772C23 57.6005 23 62.0147 25.733 64.7573C28.4659 67.5 32.8646 67.5 41.6619 67.5H55.5734C65.3187 67.5 69.2146 60.6469 67.6736 50.8825C66.7567 45.073 61.7432 42.9834 56.5913 42.9834Z" stroke="#0F1534" stroke-width="4" stroke-linejoin="round"/>
</svg>
