<svg width="28" height="28" viewBox="0 0 28 28" fill="none" xmlns="http://www.w3.org/2000/svg">
<path fill-rule="evenodd" clip-rule="evenodd" d="M24.5 14C24.5 14.6443 23.9777 15.1666 23.3334 15.1666H4.66667C4.02234 15.1666 3.5 14.6443 3.5 14C3.5 13.3556 4.02234 12.8333 4.66667 12.8333H23.3334C23.9777 12.8333 24.5 13.3556 24.5 14Z" fill="white"/>
<path d="M22.1368 14C22.0279 13.8194 21.7998 13.4949 21.5503 13.2126C21.0536 12.6504 20.3691 12.0083 19.6545 11.3879C18.9457 10.7725 18.2335 10.2009 17.6964 9.78176C17.4285 9.57267 16.9661 9.22339 16.8107 9.10608C16.292 8.72396 16.1812 7.99368 16.5633 7.4749C16.9454 6.95609 17.6757 6.84525 18.1945 7.22735L18.1988 7.23061C18.3673 7.35784 18.8557 7.72673 19.1319 7.94228C19.6885 8.37669 20.4346 8.9752 21.1842 9.62598C21.928 10.2717 22.7018 10.9919 23.2988 11.6676C23.5962 12.0041 23.8743 12.3571 24.0845 12.7057C24.2754 13.0223 24.5027 13.4829 24.5027 14C24.5027 14.5169 24.2754 14.9777 24.0845 15.2943C23.8743 15.6429 23.5962 15.9959 23.2988 16.3324C22.7018 17.0081 21.928 17.7283 21.1842 18.3741C20.4346 19.0248 19.6885 19.6233 19.1319 20.0577C18.8557 20.2733 18.3677 20.6419 18.1992 20.7691L18.1945 20.7726C17.6757 21.1547 16.9454 21.0439 16.5633 20.525C16.1812 20.0063 16.292 19.276 16.8107 18.8939C16.9661 18.7766 17.4285 18.4273 17.6964 18.2182C18.2335 17.7991 18.9457 17.2275 19.6545 16.612C20.3691 15.9917 21.0536 15.3496 21.5503 14.7874C21.7998 14.505 22.0279 14.1806 22.1368 14Z" fill="white"/>
</svg>
