<svg width="91" height="90" viewBox="0 0 91 90" fill="none" xmlns="http://www.w3.org/2000/svg">
<path d="M78.4027 67.5C81.2125 67.5 83.4475 65.7318 85.4542 63.2593C89.5622 58.1979 82.8175 54.1531 80.2451 52.1723C77.6301 50.1586 74.7103 49.0178 71.75 48.75M68 41.25C73.1777 41.25 77.375 37.0527 77.375 31.875C77.375 26.6973 73.1777 22.5 68 22.5" stroke="#0F1534" stroke-width="4" stroke-linecap="round"/>
<path d="M12.5973 67.5C9.78746 67.5 7.5525 65.7318 5.5458 63.2593C1.43783 58.1979 8.18251 54.1531 10.7549 52.1723C13.3699 50.1586 16.2897 49.0178 19.25 48.75M21.125 41.25C15.9473 41.25 11.75 37.0527 11.75 31.875C11.75 26.6973 15.9473 22.5 21.125 22.5" stroke="#0F1534" stroke-width="4" stroke-linecap="round"/>
<path d="M30.8143 56.667C26.9826 59.0362 16.9362 63.8741 23.0551 69.9278C26.0442 72.8851 29.3732 75 33.5586 75L57.4414 75C61.6268 75 64.9558 72.8851 67.9449 69.9278C74.0638 63.8741 64.0174 59.0362 60.1857 56.667C51.2005 51.111 39.7995 51.111 30.8143 56.667Z" stroke="#0F1534" stroke-width="4" stroke-linecap="round" stroke-linejoin="round"/>
<path d="M58.625 28.125C58.625 35.3737 52.7487 41.25 45.5 41.25C38.2513 41.25 32.375 35.3737 32.375 28.125C32.375 20.8763 38.2513 15 45.5 15C52.7487 15 58.625 20.8763 58.625 28.125Z" stroke="#0F1534" stroke-width="4" stroke-linecap="round"/>
</svg>
