<svg width="91" height="90" viewBox="0 0 91 90" fill="none" xmlns="http://www.w3.org/2000/svg">
<path d="M45.5 76.875C52.2863 76.875 58.7942 76.2046 64.8254 74.9752C72.3588 73.4395 76.1255 72.6717 79.5627 68.2524C83 63.833 83 58.7598 83 48.6133V41.3867C83 31.2402 83 26.167 79.5627 21.7477C76.1255 17.3283 72.3588 16.5605 64.8254 15.0248C58.7942 13.7954 52.2863 13.125 45.5 13.125C38.7137 13.125 32.2058 13.7954 26.1746 15.0248C18.6412 16.5605 14.8745 17.3283 11.4373 21.7476C8 26.167 8 31.2402 8 41.3867V48.6133C8 58.7598 8 63.833 11.4373 68.2524C14.8745 72.6717 18.6412 73.4395 26.1746 74.9752C32.2058 76.2046 38.7137 76.875 45.5 76.875Z" stroke="#0F1534" stroke-width="4"/>
<path d="M60.358 46.1733C59.8015 48.4452 56.8404 50.0769 50.9182 53.3403C44.4772 56.8896 41.2566 58.6642 38.648 57.9805C37.7645 57.7489 36.9507 57.3418 36.2675 56.7893C34.25 55.1583 34.25 51.7722 34.25 45C34.25 38.2278 34.25 34.8417 36.2675 33.2107C36.9507 32.6582 37.7645 32.2511 38.648 32.0195C41.2566 31.3358 44.4772 33.1104 50.9182 36.6597C56.8404 39.9231 59.8015 41.5548 60.358 43.8267C60.5473 44.5997 60.5473 45.4003 60.358 46.1733Z" stroke="#0F1534" stroke-width="4" stroke-linejoin="round"/>
</svg>
