<svg width="96" height="17" viewBox="0 0 96 17" fill="none" xmlns="http://www.w3.org/2000/svg">
<path d="M6.95816 1.68307C7.27942 0.706554 8.6782 0.706555 8.99945 1.68307L10.1473 5.17212C10.291 5.60883 10.703 5.90451 11.1679 5.90451H14.8824C15.922 5.90451 16.3542 7.2184 15.5132 7.82192L12.5081 9.97827C12.132 10.2482 11.9746 10.7266 12.1183 11.1633L13.2661 14.6524C13.5874 15.6289 12.4557 16.4409 11.6147 15.8374L8.6096 13.681C8.23347 13.4111 7.72415 13.4111 7.34801 13.681L4.34295 15.8374C3.5019 16.4409 2.37026 15.6289 2.69151 14.6523L3.83935 11.1633C3.98302 10.7266 3.82563 10.2482 3.44949 9.97827L0.444434 7.82192C-0.396625 7.2184 0.0356224 5.90451 1.07523 5.90451H4.78969C5.25461 5.90451 5.66666 5.60883 5.81033 5.17212L6.95816 1.68307Z" fill="#F59E0B"/>
<path d="M26.9152 1.68307C27.2364 0.706554 28.6352 0.706555 28.9565 1.68307L30.1043 5.17212C30.248 5.60883 30.66 5.90451 31.125 5.90451H34.8394C35.879 5.90451 36.3113 7.2184 35.4702 7.82192L32.4652 9.97827C32.089 10.2482 31.9316 10.7266 32.0753 11.1633L33.2231 14.6524C33.5444 15.6289 32.4128 16.4409 31.5717 15.8374L28.5666 13.681C28.1905 13.4111 27.6812 13.4111 27.305 13.681L24.3 15.8374C23.4589 16.4409 22.3273 15.6289 22.6485 14.6523L23.7964 11.1633C23.94 10.7266 23.7827 10.2482 23.4065 9.97827L20.4015 7.82192C19.5604 7.2184 19.9927 5.90451 21.0323 5.90451H24.7467C25.2116 5.90451 25.6237 5.60883 25.7674 5.17212L26.9152 1.68307Z" fill="#F59E0B"/>
<path d="M46.8722 1.68307C47.1935 0.706554 48.5923 0.706555 48.9135 1.68307L50.0613 5.17212C50.205 5.60883 50.6171 5.90451 51.082 5.90451H54.7965C55.8361 5.90451 56.2683 7.2184 55.4272 7.82192L52.4222 9.97827C52.0461 10.2482 51.8887 10.7266 52.0323 11.1633L53.1802 14.6524C53.5014 15.6289 52.3698 16.4409 51.5287 15.8374L48.5237 13.681C48.1475 13.4111 47.6382 13.4111 47.2621 13.681L44.257 15.8374C43.416 16.4409 42.2843 15.6289 42.6056 14.6523L43.7534 11.1633C43.8971 10.7266 43.7397 10.2482 43.3636 9.97827L40.3585 7.82192C39.5174 7.2184 39.9497 5.90451 40.9893 5.90451H44.7037C45.1687 5.90451 45.5807 5.60883 45.7244 5.17212L46.8722 1.68307Z" fill="#F59E0B"/>
<path d="M66.8332 1.68307C67.1544 0.706554 68.5532 0.706555 68.8745 1.68307L70.0223 5.17212C70.166 5.60883 70.578 5.90451 71.0429 5.90451H74.7574C75.797 5.90451 76.2292 7.2184 75.3882 7.82192L72.3831 9.97827C72.007 10.2482 71.8496 10.7266 71.9933 11.1633L73.1411 14.6524C73.4624 15.6289 72.3307 16.4409 71.4897 15.8374L68.4846 13.681C68.1085 13.4111 67.5991 13.4111 67.223 13.681L64.218 15.8374C63.3769 16.4409 62.2453 15.6289 62.5665 14.6523L63.7143 11.1633C63.858 10.7266 63.7006 10.2482 63.3245 9.97827L60.3194 7.82192C59.4784 7.2184 59.9106 5.90451 60.9502 5.90451H64.6647C65.1296 5.90451 65.5417 5.60883 65.6853 5.17212L66.8332 1.68307Z" fill="#F59E0B"/>
<path d="M86.7863 1.68307C87.1075 0.706554 88.5063 0.706555 88.8276 1.68307L89.9754 5.17212C90.1191 5.60883 90.5311 5.90451 90.9961 5.90451H94.7105C95.7501 5.90451 96.1824 7.2184 95.3413 7.82192L92.3362 9.97827C91.9601 10.2482 91.8027 10.7266 91.9464 11.1633L93.0942 14.6524C93.4155 15.6289 92.2838 16.4409 91.4428 15.8374L88.4377 13.681C88.0616 13.4111 87.5523 13.4111 87.1761 13.681L84.1711 15.8374C83.33 16.4409 82.1984 15.6289 82.5196 14.6523L83.6675 11.1633C83.8111 10.7266 83.6538 10.2482 83.2776 9.97827L80.2726 7.82192C79.4315 7.2184 79.8637 5.90451 80.9034 5.90451H84.6178C85.0827 5.90451 85.4948 5.60883 85.6385 5.17212L86.7863 1.68307Z" fill="#F59E0B"/>
</svg>
